<?xml version="1.0" encoding="utf-8"?>
<!-- Generator: Adobe Illustrator 26.1.0, SVG Export Plug-In . SVG Version: 6.00 Build 0)  -->
<svg version="1.1" id="Layer_1" xmlns="http://www.w3.org/2000/svg" xmlns:xlink="http://www.w3.org/1999/xlink" x="0px" y="0px"
	 viewBox="0 0 48 48" style="enable-background:new 0 0 48 48;" xml:space="preserve">
<style type="text/css">
	.st0{fill:#FFFFFF;stroke:#000000;stroke-width:3;stroke-linecap:round;stroke-miterlimit:10;}
</style>
<path d="M3,42c-0.8,0-1.5-0.3-2.1-0.9C0.3,40.5,0,39.8,0,39V9c0-0.8,0.3-1.5,0.9-2.1S2.2,6,3,6h42c0.8,0,1.5,0.3,2.1,0.9
	C47.7,7.5,48,8.2,48,9v30c0,0.8-0.3,1.5-0.9,2.1C46.5,41.7,45.8,42,45,42H3z M29.6,39H45V9H3v30h0.4c1.5-2.3,3.3-4.1,5.6-5.5
	c2.3-1.3,4.8-2,7.5-2s5.2,0.7,7.5,2C26.2,34.9,28.1,36.7,29.6,39z M16.5,28c1.7,0,3.1-0.6,4.2-1.8s1.8-2.6,1.8-4.2s-0.6-3.1-1.8-4.2
	S18.1,16,16.5,16s-3.1,0.6-4.3,1.8c-1.2,1.2-1.8,2.6-1.8,4.2s0.6,3.1,1.8,4.2C13.4,27.4,14.8,28,16.5,28z M7.2,39h18.6
	c-1.2-1.4-2.6-2.5-4.2-3.3c-1.6-0.8-3.3-1.2-5.1-1.2c-1.8,0-3.5,0.4-5.1,1.2C9.8,36.5,8.4,37.6,7.2,39z M16.5,25
	c-0.9,0-1.6-0.3-2.1-0.9c-0.6-0.6-0.9-1.3-0.9-2.1s0.3-1.6,0.9-2.1c0.6-0.6,1.3-0.9,2.1-0.9s1.6,0.3,2.1,0.9
	c0.6,0.6,0.9,1.3,0.9,2.1s-0.3,1.6-0.9,2.1C18,24.7,17.3,25,16.5,25z"/>
<path class="st0" d="M39.7,28.1l-3.7-3.7c-0.3-0.3-0.8-0.3-1.1,0L31,28.2"/>
<path class="st0" d="M35.7,26.2"/>
</svg>
